# xmcd
#
# Track frame offsets: 
#        150
#        14225
#        28740
#        45549
#        58800
#        75919
#        87087
#        100775
#        113901
#        124390
#        137629
#        152366
#        170071
#        181935
#        199716
#        221051
#        234575
#        251549
#        265764
#        278113
#
# Disc length: 4035 seconds
#
# Revision: 0
# Processed by: cddbd v1.5.2PL0 Copyright (c) Steve Scherf et al.
# Submitted via: ExactAudioCopy v0.99pb5
#
DISCID=150fc114
DTITLE=Ricky Skaggs - Waitin' For The Sun To Shine and Highways and Hearta
DTITLE=ches
DYEAR=2005
DGENRE=Country
TTITLE0=If That's The Way You Feel
TTITLE1=Don't Get Above Your Raising
TTITLE2=Your Old Love Letters
TTITLE3=Low And Lonely
TTITLE4=Waitin' For The Sun To Shine
TTITLE5=You May See Me Walkin'
TTITLE6=Crying My Heart Out Over You
TTITLE7=Lost To A Stranger
TTITLE8=I Don't Care
TTITLE9=So Round, So Firm, So Fully Packed
TTITLE10=Heartbroke
TTITLE11=You've Got A Lover
TTITLE12=Don't Think I'll Cry
TTITLE13=Don't Let Your Sweet Love Die
TTITLE14=Nothing Can Hurt You
TTITLE15=I Wouldn't Change You If I Could
TTITLE16=Can't You Hear Me Callin'
TTITLE17=Highway 40 Blues
TTITLE18=Let's Love The Bad Times Away
TTITLE19=One Way Rider
EXTD=
EXTT0=
EXTT1=
EXTT2=
EXTT3=
EXTT4=
EXTT5=
EXTT6=
EXTT7=
EXTT8=
EXTT9=
EXTT10=
EXTT11=
EXTT12=
EXTT13=
EXTT14=
EXTT15=
EXTT16=
EXTT17=
EXTT18=
EXTT19=
PLAYORDER=
